<svg width="640" height="460" viewBox="0 0 640 460" fill="none" xmlns="http://www.w3.org/2000/svg">
  <rect width="640" height="460" fill="#0E1430"/>
  <g opacity="0.25">
    <rect x="20" y="20" width="600" height="420" stroke="#3C4A7A" stroke-width="2" stroke-dasharray="8 8"/>
    <path d="M20 120H620M20 220H620M20 320H620" stroke="#3C4A7A" stroke-width="1"/>
    <path d="M120 20V440M220 20V440M320 20V440M420 20V440M520 20V440" stroke="#3C4A7A" stroke-width="1"/>
  </g>
  <rect x="160" y="70" width="320" height="320" rx="16" fill="#1C2754" stroke="#FF5CCF" stroke-width="6"/>
  <rect x="200" y="110" width="240" height="180" rx="12" fill="#101426" stroke="#56D8FF" stroke-width="4"/>
  <rect x="220" y="130" width="40" height="40" fill="#FFE05A"/>
  <rect x="260" y="130" width="40" height="40" fill="#6EFFC7"/>
  <rect x="300" y="130" width="40" height="40" fill="#FF5CCF"/>
  <rect x="340" y="130" width="40" height="40" fill="#56D8FF"/>
  <rect x="220" y="170" width="40" height="40" fill="#56D8FF"/>
  <rect x="260" y="170" width="40" height="40" fill="#FF5CCF"/>
  <rect x="300" y="170" width="40" height="40" fill="#6EFFC7"/>
  <rect x="340" y="170" width="40" height="40" fill="#FFE05A"/>
  <rect x="220" y="210" width="40" height="40" fill="#FF7D4E"/>
  <rect x="260" y="210" width="40" height="40" fill="#FFE05A"/>
  <rect x="300" y="210" width="40" height="40" fill="#56D8FF"/>
  <rect x="340" y="210" width="40" height="40" fill="#6EFFC7"/>
  <rect x="230" y="310" width="180" height="44" rx="10" fill="#101426" stroke="#6EFFC7" stroke-width="4"/>
  <circle cx="260" cy="332" r="10" fill="#FFE05A"/>
  <circle cx="300" cy="332" r="10" fill="#FF5CCF"/>
  <circle cx="340" cy="332" r="10" fill="#56D8FF"/>
  <text x="320" y="95" text-anchor="middle" fill="#EAF0FF" font-size="24" font-family="monospace">PIXELMINT</text>
</svg>

